<?xml version="1.0" encoding="utf-8"?>
<!-- Generator: Adobe Illustrator 20.1.0, SVG Export Plug-In . SVG Version: 6.00 Build 0)  -->
<svg version="1.1" id="Layer_1" xmlns="http://www.w3.org/2000/svg" xmlns:xlink="http://www.w3.org/1999/xlink" x="0px" y="0px"
	 viewBox="0 0 1300 900" style="enable-background:new 0 0 1300 900;" xml:space="preserve">
<style type="text/css">
	.st0{fill:none;stroke:#FFFFFF;stroke-width:5;stroke-miterlimit:10;}
	.st1{stroke:#FFFFFF;stroke-width:5;stroke-miterlimit:10;}
</style>
<polygon class="st0" points="1537.7,28.8 1780.8,450 1537.7,871.2 1051.3,871.2 808.2,450 1051.3,28.8 "/>
<line class="st0" x1="779.3" y1="49" x2="1040.5" y2="49"/>
<line class="st0" x1="841.2" y1="149" x2="984" y2="149"/>
<circle class="st0" cx="824.7" cy="149" r="16.5"/>
<circle class="st0" cx="762.8" cy="49" r="16.5"/>
<circle class="st0" cx="701" cy="146.5" r="16.5"/>
<circle class="st0" cx="824.7" cy="93.4" r="16.5"/>
<circle class="st0" cx="584.8" cy="268.4" r="16.5"/>
<circle class="st0" cx="824.7" cy="207.5" r="16.5"/>
<circle class="st0" cx="609.5" cy="106.2" r="16.5"/>
<circle class="st0" cx="758.6" cy="149.6" r="16.5"/>
<circle class="st0" cx="885.6" cy="93.4" r="16.5"/>
<circle class="st0" cx="701" cy="49" r="16.5"/>
<circle class="st0" cx="639.7" cy="268.4" r="16.5"/>
<line class="st0" x1="752.7" y1="93.4" x2="809.4" y2="93.4"/>
<line class="st1" x1="711.6" y1="135.9" x2="754.6" y2="92.9"/>
<line class="st0" x1="902.1" y1="93.4" x2="1014" y2="93.4"/>
<line class="st1" x1="714.1" y1="194.1" x2="748.6" y2="159.6"/>
<circle class="st0" cx="701" cy="207.5" r="16.5"/>
<line class="st0" x1="718.5" y1="49" x2="746.3" y2="49"/>
<line class="st0" x1="617.8" y1="575" x2="879" y2="575"/>
<line class="st0" x1="679.7" y1="477.5" x2="822.5" y2="477.5"/>
<circle class="st0" cx="663.2" cy="477.5" r="16.5"/>
<circle class="st0" cx="601.3" cy="575" r="16.5"/>
<circle class="st0" cx="539.5" cy="477.5" r="16.5"/>
<circle class="st0" cx="663.2" cy="530.6" r="16.5"/>
<circle class="st0" cx="607.9" cy="477.5" r="16.5"/>
<circle class="st0" cx="724.1" cy="530.6" r="16.5"/>
<circle class="st0" cx="539.5" cy="575" r="16.5"/>
<line class="st0" x1="591.2" y1="530.6" x2="647.9" y2="530.6"/>
<line class="st1" x1="550.1" y1="488.1" x2="593.1" y2="531.1"/>
<line class="st0" x1="740.6" y1="530.6" x2="852.5" y2="530.6"/>
<line class="st1" x1="551.1" y1="420.7" x2="596.2" y2="465.8"/>
<circle class="st0" cx="539.5" cy="411.7" r="16.5"/>
<line class="st0" x1="557" y1="575" x2="584.8" y2="575"/>
<line class="st0" x1="841.2" y1="207.5" x2="944.5" y2="207.5"/>
<line class="st0" x1="717.5" y1="268.4" x2="911.9" y2="268.4"/>
<circle class="st0" cx="701" cy="268.4" r="16.5"/>
<line class="st1" x1="639.7" y1="207.5" x2="639.7" y2="251.9"/>
<line class="st1" x1="584.8" y1="207.5" x2="584.8" y2="251.9"/>
<line class="st1" x1="609.2" y1="178.3" x2="640.6" y2="209.8"/>
<line class="st1" x1="553.5" y1="178.3" x2="585" y2="209.8"/>
<line class="st1" x1="554" y1="89.7" x2="554" y2="180.6"/>
<line class="st1" x1="609.5" y1="120.5" x2="609.5" y2="180.6"/>
<circle class="st0" cx="554" cy="75.9" r="16.5"/>
<circle class="st0" cx="877.7" cy="667.4" r="16.5"/>
<circle class="st0" cx="682.5" cy="642.7" r="16.5"/>
<circle class="st0" cx="844.7" cy="612.5" r="16.5"/>
<line class="st1" x1="783.7" y1="612.5" x2="828.2" y2="612.5"/>
<line class="st1" x1="783.7" y1="667.4" x2="861.2" y2="667.4"/>
<line class="st1" x1="754.6" y1="643.1" x2="786" y2="611.6"/>
<line class="st1" x1="754.6" y1="698.7" x2="786" y2="667.3"/>
<line class="st1" x1="666" y1="698.2" x2="756.9" y2="698.2"/>
<line class="st1" x1="696.8" y1="642.7" x2="756.9" y2="642.7"/>
<circle class="st0" cx="652.2" cy="698.2" r="16.5"/>
<ellipse transform="matrix(0.7071 -0.7071 0.7071 0.7071 -248.7163 850.6329)" class="st0" cx="902.4" cy="725.5" rx="16.5" ry="16.5"/>
<line class="st1" x1="836.1" y1="725.9" x2="884.9" y2="725.9"/>
<ellipse transform="matrix(0.7071 -0.7071 0.7071 0.7071 -275.3848 793.3165)" class="st0" cx="819.9" cy="729.1" rx="16.5" ry="16.5"/>
<ellipse transform="matrix(0.7071 -0.7071 0.7071 0.7071 -271.0445 627.5696)" class="st0" cx="622" cy="641" rx="16.5" ry="16.5"/>
<line class="st1" x1="557" y1="641.3" x2="604.5" y2="641.3"/>
<ellipse transform="matrix(0.7071 -0.7071 0.7071 0.7071 -296.3093 570.1086)" class="st0" cx="540" cy="642.7" rx="16.5" ry="16.5"/>
<circle class="st0" cx="478.5" cy="575" r="16.5"/>
<circle class="st0" cx="453.9" cy="737.2" r="16.5"/>
<circle class="st0" cx="423.6" cy="575" r="16.5"/>
<line class="st1" x1="423.6" y1="636" x2="423.6" y2="591.5"/>
<line class="st1" x1="478.5" y1="636" x2="478.5" y2="591.5"/>
<line class="st1" x1="454.2" y1="665.1" x2="422.8" y2="633.7"/>
<line class="st1" x1="509.8" y1="665.1" x2="478.4" y2="633.7"/>
<line class="st1" x1="509.4" y1="753.7" x2="509.4" y2="662.8"/>
<line class="st1" x1="453.9" y1="722.9" x2="453.9" y2="662.8"/>
<circle class="st0" cx="509.4" cy="767.5" r="16.5"/>
<circle class="st0" cx="583.9" cy="700.4" r="16.5"/>
<circle class="st0" cx="707.6" cy="753.5" r="16.5"/>
<line class="st0" x1="635.6" y1="753.5" x2="692.3" y2="753.5"/>
<line class="st1" x1="594.5" y1="711" x2="637.6" y2="754"/>
<circle class="st0" cx="584.8" cy="761.8" r="16.5"/>
<circle class="st0" cx="766.6" cy="816.5" r="16.5"/>
<line class="st0" x1="636.5" y1="814.9" x2="750.1" y2="816.5"/>
<line class="st1" x1="595.5" y1="772.4" x2="638.5" y2="815.4"/>
<ellipse transform="matrix(0.7071 -0.7071 0.7071 0.7071 90.0814 369.8795)" class="st0" cx="491.5" cy="76.2" rx="16.5" ry="16.5"/>
<line class="st1" x1="491.9" y1="141.2" x2="491.9" y2="93.8"/>
<ellipse transform="matrix(0.7071 -0.7071 0.7071 0.7071 32.6203 395.1443)" class="st0" cx="493.3" cy="158.2" rx="16.5" ry="16.5"/>
</svg>
